<?xml version="1.0" encoding="UTF-8"?>
<svg version="1.1" viewBox="0 0 385 495.25" xmlns="http://www.w3.org/2000/svg">
 <g>
  <path d="m247.63 479.03c-127.8 0-231.4-103.6-231.4-231.4 0-127.8 103.6-231.4 231.4-231.4m-119.21 374.41c-78.853-66.16-89.133-183.71-22.973-262.56 66.16-78.853 183.71-89.133 262.56-22.973m-187 267.59c-69.027-36.44-95.453-121.95-59.013-190.97 36.44-69.04 121.93-95.453 190.97-59.013m-65.333 221.23c-53.187 0-96.307-43.12-96.307-96.307s43.12-96.307 96.307-96.307" fill="none" stroke="#f15a29" stroke-miterlimit="10" stroke-width="32.453"/>
  <path d="m277.37 220.7c-3.76-3.96-7.6933-7.12-11.8-9.4667-4.1067-2.3467-8.3067-3.52-12.6-3.52-5.8933 0-11.173 1.08-15.813 3.24-4.6533 2.1733-8.6267 5.0533-11.933 8.6667-3.32 3.6-5.8133 7.7467-7.52 12.44-1.6933 4.6933-2.5467 9.56-2.5467 14.6 0 5.0533 0.85334 9.9333 2.5467 14.613 1.7067 4.6933 4.2 8.84 7.52 12.44 3.3067 3.6133 7.28 6.4933 11.933 8.6667 4.64 2.16 9.92 3.24 15.813 3.24 5 0 9.6533-1.04 13.947-3.1067 4.2933-2.08 7.9467-5.0933 10.987-9.0667l21.453 23.267c-3.2133 3.24-6.9333 6.04-11.133 8.3867-4.2 2.3467-8.44 4.24-12.733 5.68-4.28 1.44-8.4 2.4667-12.333 3.1067-3.9333 0.62666-7.3333 0.94666-10.187 0.94666-9.6533 0-18.773-1.6267-27.347-4.8667-8.5867-3.2533-16-7.84-22.253-13.8-6.2667-5.9467-11.227-13.12-14.88-21.507-3.6667-8.3867-5.5067-17.707-5.5067-28 0-10.267 1.84-19.6 5.5067-27.987 3.6533-8.3867 8.6133-15.56 14.88-21.507 6.2533-5.9467 13.667-10.547 22.253-13.8 8.5733-3.24 17.693-4.8667 27.347-4.8667 8.2133 0 16.493 1.5867 24.8 4.7333 8.32 3.16 15.6 8.16 21.853 15.013z" fill="black" />
 </g>
</svg>
