<?xml version="1.0" encoding="UTF-8"?>
<svg width="20px" height="20px" viewBox="0 0 20 20" version="1.1" xmlns="http://www.w3.org/2000/svg" xmlns:xlink="http://www.w3.org/1999/xlink">
    <title>wscode</title>
    <g id="Page-1" stroke="none" stroke-width="1" fill="none" fill-rule="evenodd" stroke-linecap="round" stroke-linejoin="round">
        <g id="wscode" transform="translate(1, 1)" stroke="#000000" stroke-width="1.5">
            <path d="M5.25,0 L5.25,1.5 M1.5,5.25 L0,5.25 M18,5.25 L16.5,5.25 M1.5,10 L0,10 M1.5,7.5 L0,7.5 M18,8 L16.5,8 M18,10.5 L16.5,10.5 M1.5,12.75 L0,12.75 M18,12.75 L16.5,12.75 M5.25,16.5 L5.25,18 M10,0 L10,1.5 M7.5,0 L7.5,1.5 M8,16.5 L8,18 M10.5,16.5 L10.5,18 M12.75,0 L12.75,1.5 M12.75,16.5 L12.75,18 M3.75,16.5 L14.25,16.5 C15.4926407,16.5 16.5,15.4926407 16.5,14.25 L16.5,3.75 C16.5,2.50735931 15.4926407,1.5 14.25,1.5 L3.75,1.5 C2.50735931,1.5 1.5,2.50735931 1.5,3.75 L1.5,14.25 C1.5,15.4926407 2.50735931,16.5 3.75,16.5 Z M4.5,4.5 L13.5,4.5 L13.5,13.5 L4.5,13.5 L4.5,4.5 Z" id="Shape"></path>
        </g>
    </g>
</svg>